<svg width="22" height="34" viewBox="0 0 22 34" fill="none" xmlns="http://www.w3.org/2000/svg">
    <path d="M4.625 6.375C4.625 4.68424 5.29665 3.06274 6.49219 1.86719C7.68774 0.67165 9.30924 0 11 0C12.6908 0 14.3123 0.67165 15.5078 1.86719C16.7034 3.06274 17.375 4.68424 17.375 6.375V17C17.375 18.6908 16.7034 20.3123 15.5078 21.5078C14.3123 22.7034 12.6908 23.375 11 23.375C9.30924 23.375 7.68774 22.7034 6.49219 21.5078C5.29665 20.3123 4.625 18.6908 4.625 17V6.375Z" fill="url(#paint0_linear_772:16)"/>
    <path d="M1.4375 13.8125C1.71929 13.8125 1.98954 13.9244 2.1888 14.1237C2.38806 14.323 2.5 14.5932 2.5 14.875V17C2.5 19.2543 3.39553 21.4163 4.98959 23.0104C6.58365 24.6045 8.74566 25.5 11 25.5C13.2543 25.5 15.4163 24.6045 17.0104 23.0104C18.6045 21.4163 19.5 19.2543 19.5 17V14.875C19.5 14.5932 19.6119 14.323 19.8112 14.1237C20.0105 13.9244 20.2807 13.8125 20.5625 13.8125C20.8443 13.8125 21.1145 13.9244 21.3138 14.1237C21.5131 14.323 21.625 14.5932 21.625 14.875V17C21.625 19.634 20.6467 22.1741 18.8798 24.1276C17.1128 26.081 14.6833 27.3085 12.0625 27.5719V31.875H18.4375C18.7193 31.875 18.9895 31.9869 19.1888 32.1862C19.3881 32.3855 19.5 32.6557 19.5 32.9375C19.5 33.2193 19.3881 33.4895 19.1888 33.6888C18.9895 33.8881 18.7193 34 18.4375 34H3.5625C3.28071 34 3.01046 33.8881 2.8112 33.6888C2.61194 33.4895 2.5 33.2193 2.5 32.9375C2.5 32.6557 2.61194 32.3855 2.8112 32.1862C3.01046 31.9869 3.28071 31.875 3.5625 31.875H9.9375V27.5719C7.3167 27.3085 4.88717 26.081 3.12024 24.1276C1.35332 22.1741 0.374967 19.634 0.375 17V14.875C0.375 14.5932 0.486942 14.323 0.686199 14.1237C0.885457 13.9244 1.15571 13.8125 1.4375 13.8125Z" fill="url(#paint1_linear_772:16)"/>
    <defs>
        <linearGradient id="paint0_linear_772:16" x1="11" y1="0" x2="11" y2="34" gradientUnits="userSpaceOnUse">
            <stop stop-color="#013E7A"/>
            <stop offset="1" stop-color="#0E022A"/>
        </linearGradient>
        <linearGradient id="paint1_linear_772:16" x1="11" y1="0" x2="11" y2="34" gradientUnits="userSpaceOnUse">
            <stop stop-color="#013E7A"/>
            <stop offset="1" stop-color="#0E022A"/>
        </linearGradient>
    </defs>
</svg>
